<svg xmlns="http://www.w3.org/2000/svg" xmlns:xlink="http://www.w3.org/1999/xlink" width="500" zoomAndPan="magnify" viewBox="0 0 375 374.999991" height="500" preserveAspectRatio="xMidYMid meet" version="1.0"><defs><g/><clipPath id="350d33cf3b"><path d="M 184.683594 160.839844 L 190 160.839844 L 190 196.113281 L 184.683594 196.113281 Z M 184.683594 160.839844 " clip-rule="nonzero"/></clipPath><clipPath id="cc1fcca240"><path d="M 153.136719 127.390625 L 222 127.390625 L 222 196.390625 L 153.136719 196.390625 Z M 153.136719 127.390625 " clip-rule="nonzero"/></clipPath></defs><rect x="-37.5" width="450" fill="#ffffff" y="-37.499999" height="449.999989" fill-opacity="1"/><rect x="-37.5" width="450" fill="#004aad" y="-37.499999" height="449.999989" fill-opacity="1"/><g clip-path="url(#350d33cf3b)"><path fill="#eeba2b" d="M 184.78125 191.488281 L 184.78125 196.113281 L 189.902344 196.113281 L 189.902344 160.851562 L 184.78125 160.851562 L 184.78125 191.488281 " fill-opacity="1" fill-rule="nonzero"/></g><path fill="#eeba2b" d="M 210.390625 142.410156 L 210.390625 140.359375 L 164.292969 140.359375 L 164.292969 142.410156 C 164.292969 144.105469 165.667969 145.484375 167.367188 145.484375 L 207.316406 145.484375 C 209.015625 145.484375 210.390625 144.105469 210.390625 142.410156 " fill-opacity="1" fill-rule="nonzero"/><path fill="#eeba2b" d="M 172.488281 155.726562 L 202.195312 155.726562 C 203.894531 155.726562 205.269531 154.351562 205.269531 152.652344 L 205.269531 150.605469 L 169.414062 150.605469 L 169.414062 152.652344 C 169.414062 154.351562 170.789062 155.726562 172.488281 155.726562 " fill-opacity="1" fill-rule="nonzero"/><g clip-path="url(#cc1fcca240)"><path fill="#eeba2b" d="M 153.136719 127.390625 L 153.136719 196.113281 L 179.65625 196.113281 L 179.65625 163.921875 C 179.65625 162.226562 178.28125 160.851562 176.585938 160.851562 L 174.535156 160.851562 L 174.535156 191.488281 L 157.761719 191.488281 L 157.761719 132.015625 L 217.230469 132.015625 L 217.230469 191.488281 L 200.148438 191.488281 L 200.148438 160.851562 L 198.097656 160.851562 C 196.402344 160.851562 195.023438 162.226562 195.023438 163.921875 L 195.023438 196.113281 L 221.855469 196.113281 L 221.855469 127.390625 L 153.136719 127.390625 " fill-opacity="1" fill-rule="nonzero"/></g><g fill="#ffffff" fill-opacity="1"><g transform="translate(100.21124, 227.378114)"><g><path d="M 7.03125 -7.921875 L 7.03125 -20.34375 L 12.0625 -20.34375 L 12.0625 -7.59375 C 12.0625 -4.757812 11.445312 -2.726562 10.21875 -1.5 C 8.988281 -0.28125 6.9375 0.328125 4.0625 0.328125 C 3.320312 0.328125 2.65625 0.296875 2.0625 0.234375 C 1.46875 0.179688 0.910156 0.09375 0.390625 -0.03125 L 0.390625 -4.609375 C 0.816406 -4.515625 1.28125 -4.453125 1.78125 -4.421875 C 2.28125 -4.390625 2.84375 -4.375 3.46875 -4.375 C 4.957031 -4.375 5.921875 -4.597656 6.359375 -5.046875 C 6.804688 -5.503906 7.03125 -6.460938 7.03125 -7.921875 Z M 7.03125 -7.921875 "/></g></g></g><g fill="#ffffff" fill-opacity="1"><g transform="translate(114.803114, 227.378114)"><g><path d="M 5.640625 0 L 0.9375 0 L 0.9375 -4.46875 L 5.640625 -4.46875 Z M 5.640625 0 "/></g></g></g><g fill="#ffffff" fill-opacity="1"><g transform="translate(122.488296, 227.378114)"><g><path d="M 20.015625 -10.1875 C 20.015625 -6.488281 19.257812 -3.8125 17.75 -2.15625 C 16.25 -0.5 13.8125 0.328125 10.4375 0.328125 C 6.914062 0.328125 4.441406 -0.445312 3.015625 -2 C 1.585938 -3.5625 0.875 -6.289062 0.875 -10.1875 C 0.875 -13.882812 1.625 -16.550781 3.125 -18.1875 C 4.632812 -19.832031 7.070312 -20.65625 10.4375 -20.65625 C 13.96875 -20.65625 16.445312 -19.875 17.875 -18.3125 C 19.300781 -16.757812 20.015625 -14.050781 20.015625 -10.1875 Z M 6.578125 -5.84375 C 6.859375 -5.300781 7.273438 -4.921875 7.828125 -4.703125 C 8.378906 -4.484375 9.25 -4.375 10.4375 -4.375 C 11.632812 -4.375 12.507812 -4.484375 13.0625 -4.703125 C 13.613281 -4.921875 14.03125 -5.300781 14.3125 -5.84375 C 14.519531 -6.269531 14.671875 -6.828125 14.765625 -7.515625 C 14.867188 -8.210938 14.921875 -9.101562 14.921875 -10.1875 C 14.921875 -11.289062 14.867188 -12.191406 14.765625 -12.890625 C 14.671875 -13.597656 14.519531 -14.164062 14.3125 -14.59375 C 14.050781 -15.15625 13.644531 -15.550781 13.09375 -15.78125 C 12.539062 -16.007812 11.65625 -16.125 10.4375 -16.125 C 9.226562 -16.125 8.347656 -16.007812 7.796875 -15.78125 C 7.242188 -15.550781 6.835938 -15.15625 6.578125 -14.59375 C 6.367188 -14.164062 6.210938 -13.597656 6.109375 -12.890625 C 6.015625 -12.191406 5.96875 -11.289062 5.96875 -10.1875 C 5.96875 -9.101562 6.015625 -8.210938 6.109375 -7.515625 C 6.210938 -6.828125 6.367188 -6.269531 6.578125 -5.84375 Z M 6.578125 -5.84375 "/></g></g></g><g fill="#ffffff" fill-opacity="1"><g transform="translate(144.473248, 227.378114)"><g/></g></g><g fill="#ffffff" fill-opacity="1"><g transform="translate(150.375017, 227.378114)"><g><path d="M 21.921875 -20.34375 L 21.921875 0 L 17.21875 0 L 17.21875 -12.203125 L 13.75 -3.890625 L 9.671875 -3.890625 L 6.265625 -12.203125 L 6.265625 0 L 1.5625 0 L 1.5625 -20.34375 L 7.6875 -20.34375 L 11.8125 -10.09375 L 16.03125 -20.34375 Z M 21.921875 -20.34375 "/></g></g></g><g fill="#ffffff" fill-opacity="1"><g transform="translate(174.954024, 227.378114)"><g><path d="M 5.1875 0 L -0.09375 0 L 7.421875 -20.34375 L 12.65625 -20.34375 L 19.984375 0 L 14.734375 0 L 13.65625 -3.40625 L 6.265625 -3.40625 Z M 9.921875 -15.34375 C 9.753906 -14.738281 9.566406 -14.09375 9.359375 -13.40625 C 9.148438 -12.726562 8.8125 -11.625 8.34375 -10.09375 L 7.5 -7.390625 L 12.390625 -7.390625 L 11.546875 -10.09375 C 11.265625 -10.914062 10.984375 -11.785156 10.703125 -12.703125 C 10.421875 -13.617188 10.160156 -14.5 9.921875 -15.34375 Z M 9.921875 -15.34375 "/></g></g></g><g fill="#ffffff" fill-opacity="1"><g transform="translate(195.998626, 227.378114)"><g><path d="M 13.078125 -7.5625 L 9.5625 -7.5625 L 9.5625 -11.609375 L 17.78125 -11.609375 L 17.78125 -0.90625 C 17.175781 -0.625 16.09375 -0.347656 14.53125 -0.078125 C 12.976562 0.191406 11.5625 0.328125 10.28125 0.328125 C 6.757812 0.328125 4.3125 -0.484375 2.9375 -2.109375 C 1.5625 -3.734375 0.875 -6.425781 0.875 -10.1875 C 0.875 -13.820312 1.671875 -16.472656 3.265625 -18.140625 C 4.867188 -19.816406 7.425781 -20.65625 10.9375 -20.65625 C 12.207031 -20.65625 13.34375 -20.628906 14.34375 -20.578125 C 15.351562 -20.523438 16.128906 -20.445312 16.671875 -20.34375 L 16.671875 -15.921875 C 15.960938 -15.992188 15.113281 -16.046875 14.125 -16.078125 C 13.144531 -16.109375 12.082031 -16.125 10.9375 -16.125 C 9.695312 -16.125 8.78125 -16.015625 8.1875 -15.796875 C 7.59375 -15.578125 7.144531 -15.195312 6.84375 -14.65625 C 6.5625 -14.226562 6.359375 -13.648438 6.234375 -12.921875 C 6.117188 -12.203125 6.0625 -11.289062 6.0625 -10.1875 C 6.0625 -9.125 6.113281 -8.234375 6.21875 -7.515625 C 6.332031 -6.804688 6.507812 -6.238281 6.75 -5.8125 C 7.050781 -5.226562 7.476562 -4.816406 8.03125 -4.578125 C 8.582031 -4.335938 9.441406 -4.21875 10.609375 -4.21875 C 10.992188 -4.21875 11.394531 -4.234375 11.8125 -4.265625 C 12.238281 -4.296875 12.660156 -4.34375 13.078125 -4.40625 Z M 13.078125 -7.5625 "/></g></g></g><g fill="#ffffff" fill-opacity="1"><g transform="translate(215.84348, 227.378114)"><g><path d="M 20.015625 -10.1875 C 20.015625 -6.488281 19.257812 -3.8125 17.75 -2.15625 C 16.25 -0.5 13.8125 0.328125 10.4375 0.328125 C 6.914062 0.328125 4.441406 -0.445312 3.015625 -2 C 1.585938 -3.5625 0.875 -6.289062 0.875 -10.1875 C 0.875 -13.882812 1.625 -16.550781 3.125 -18.1875 C 4.632812 -19.832031 7.070312 -20.65625 10.4375 -20.65625 C 13.96875 -20.65625 16.445312 -19.875 17.875 -18.3125 C 19.300781 -16.757812 20.015625 -14.050781 20.015625 -10.1875 Z M 6.578125 -5.84375 C 6.859375 -5.300781 7.273438 -4.921875 7.828125 -4.703125 C 8.378906 -4.484375 9.25 -4.375 10.4375 -4.375 C 11.632812 -4.375 12.507812 -4.484375 13.0625 -4.703125 C 13.613281 -4.921875 14.03125 -5.300781 14.3125 -5.84375 C 14.519531 -6.269531 14.671875 -6.828125 14.765625 -7.515625 C 14.867188 -8.210938 14.921875 -9.101562 14.921875 -10.1875 C 14.921875 -11.289062 14.867188 -12.191406 14.765625 -12.890625 C 14.671875 -13.597656 14.519531 -14.164062 14.3125 -14.59375 C 14.050781 -15.15625 13.644531 -15.550781 13.09375 -15.78125 C 12.539062 -16.007812 11.65625 -16.125 10.4375 -16.125 C 9.226562 -16.125 8.347656 -16.007812 7.796875 -15.78125 C 7.242188 -15.550781 6.835938 -15.15625 6.578125 -14.59375 C 6.367188 -14.164062 6.210938 -13.597656 6.109375 -12.890625 C 6.015625 -12.191406 5.96875 -11.289062 5.96875 -10.1875 C 5.96875 -9.101562 6.015625 -8.210938 6.109375 -7.515625 C 6.210938 -6.828125 6.367188 -6.269531 6.578125 -5.84375 Z M 6.578125 -5.84375 "/></g></g></g><g fill="#ffffff" fill-opacity="1"><g transform="translate(237.828426, 227.378114)"><g><path d="M 14.53125 -4.703125 L 14.53125 0 L 1.5625 0 L 1.5625 -20.34375 L 6.578125 -20.34375 L 6.578125 -4.703125 Z M 14.53125 -4.703125 "/></g></g></g><g fill="#ffffff" fill-opacity="1"><g transform="translate(253.87945, 227.378114)"><g><path d="M 20.015625 -10.1875 C 20.015625 -6.488281 19.257812 -3.8125 17.75 -2.15625 C 16.25 -0.5 13.8125 0.328125 10.4375 0.328125 C 6.914062 0.328125 4.441406 -0.445312 3.015625 -2 C 1.585938 -3.5625 0.875 -6.289062 0.875 -10.1875 C 0.875 -13.882812 1.625 -16.550781 3.125 -18.1875 C 4.632812 -19.832031 7.070312 -20.65625 10.4375 -20.65625 C 13.96875 -20.65625 16.445312 -19.875 17.875 -18.3125 C 19.300781 -16.757812 20.015625 -14.050781 20.015625 -10.1875 Z M 6.578125 -5.84375 C 6.859375 -5.300781 7.273438 -4.921875 7.828125 -4.703125 C 8.378906 -4.484375 9.25 -4.375 10.4375 -4.375 C 11.632812 -4.375 12.507812 -4.484375 13.0625 -4.703125 C 13.613281 -4.921875 14.03125 -5.300781 14.3125 -5.84375 C 14.519531 -6.269531 14.671875 -6.828125 14.765625 -7.515625 C 14.867188 -8.210938 14.921875 -9.101562 14.921875 -10.1875 C 14.921875 -11.289062 14.867188 -12.191406 14.765625 -12.890625 C 14.671875 -13.597656 14.519531 -14.164062 14.3125 -14.59375 C 14.050781 -15.15625 13.644531 -15.550781 13.09375 -15.78125 C 12.539062 -16.007812 11.65625 -16.125 10.4375 -16.125 C 9.226562 -16.125 8.347656 -16.007812 7.796875 -15.78125 C 7.242188 -15.550781 6.835938 -15.15625 6.578125 -14.59375 C 6.367188 -14.164062 6.210938 -13.597656 6.109375 -12.890625 C 6.015625 -12.191406 5.96875 -11.289062 5.96875 -10.1875 C 5.96875 -9.101562 6.015625 -8.210938 6.109375 -7.515625 C 6.210938 -6.828125 6.367188 -6.269531 6.578125 -5.84375 Z M 6.578125 -5.84375 "/></g></g></g><g fill="#eeba2b" fill-opacity="1"><g transform="translate(122.584991, 244.871528)"><g><path d="M 2.875 0.109375 C 2.363281 0.109375 1.921875 0.0195312 1.546875 -0.15625 C 1.179688 -0.34375 0.898438 -0.59375 0.703125 -0.90625 C 0.503906 -1.21875 0.40625 -1.566406 0.40625 -1.953125 C 0.40625 -2.378906 0.523438 -2.738281 0.765625 -3.03125 C 1.015625 -3.320312 1.34375 -3.601562 1.75 -3.875 C 1.550781 -4.125 1.382812 -4.382812 1.25 -4.65625 C 1.113281 -4.9375 1.046875 -5.238281 1.046875 -5.5625 C 1.046875 -5.925781 1.128906 -6.25 1.296875 -6.53125 C 1.460938 -6.820312 1.695312 -7.046875 2 -7.203125 C 2.300781 -7.367188 2.65625 -7.453125 3.0625 -7.453125 C 3.457031 -7.453125 3.796875 -7.375 4.078125 -7.21875 C 4.359375 -7.0625 4.578125 -6.847656 4.734375 -6.578125 C 4.890625 -6.316406 4.96875 -6.03125 4.96875 -5.71875 C 4.96875 -5.375 4.878906 -5.0625 4.703125 -4.78125 C 4.535156 -4.5 4.296875 -4.25 3.984375 -4.03125 L 3.5625 -3.71875 L 4.78125 -2.3125 C 4.875 -2.5 4.945312 -2.695312 5 -2.90625 C 5.0625 -3.125 5.09375 -3.351562 5.09375 -3.59375 L 6.359375 -3.59375 C 6.359375 -3.09375 6.296875 -2.644531 6.171875 -2.25 C 6.054688 -1.863281 5.894531 -1.535156 5.6875 -1.265625 L 6.796875 0 L 5.203125 0 L 4.75 -0.5 C 4.476562 -0.289062 4.175781 -0.132812 3.84375 -0.03125 C 3.507812 0.0625 3.1875 0.109375 2.875 0.109375 Z M 3.921875 -1.421875 L 2.53125 -2.96875 L 2.484375 -2.9375 C 2.285156 -2.789062 2.132812 -2.640625 2.03125 -2.484375 C 1.9375 -2.328125 1.890625 -2.179688 1.890625 -2.046875 C 1.890625 -1.785156 1.984375 -1.566406 2.171875 -1.390625 C 2.367188 -1.210938 2.625 -1.125 2.9375 -1.125 C 3.28125 -1.125 3.609375 -1.222656 3.921875 -1.421875 Z M 2.828125 -4.59375 L 3.203125 -4.84375 C 3.566406 -5.070312 3.75 -5.335938 3.75 -5.640625 C 3.75 -5.785156 3.6875 -5.921875 3.5625 -6.046875 C 3.445312 -6.171875 3.28125 -6.234375 3.0625 -6.234375 C 2.851562 -6.222656 2.679688 -6.148438 2.546875 -6.015625 C 2.421875 -5.890625 2.359375 -5.734375 2.359375 -5.546875 C 2.359375 -5.390625 2.398438 -5.234375 2.484375 -5.078125 C 2.578125 -4.921875 2.691406 -4.757812 2.828125 -4.59375 Z M 2.828125 -4.59375 "/></g></g></g><g fill="#eeba2b" fill-opacity="1"><g transform="translate(132.297014, 244.871528)"><g/></g></g><g fill="#eeba2b" fill-opacity="1"><g transform="translate(137.532521, 244.871528)"><g><path d="M 7.140625 -4.78125 L 5.5625 -4.78125 C 5.5 -5.1875 5.320312 -5.503906 5.03125 -5.734375 C 4.75 -5.972656 4.398438 -6.09375 3.984375 -6.09375 C 3.410156 -6.09375 2.953125 -5.878906 2.609375 -5.453125 C 2.265625 -5.035156 2.09375 -4.445312 2.09375 -3.6875 C 2.09375 -2.894531 2.265625 -2.296875 2.609375 -1.890625 C 2.953125 -1.484375 3.40625 -1.28125 3.96875 -1.28125 C 4.382812 -1.28125 4.734375 -1.382812 5.015625 -1.59375 C 5.304688 -1.8125 5.488281 -2.117188 5.5625 -2.515625 L 7.140625 -2.515625 C 7.078125 -2.054688 6.910156 -1.628906 6.640625 -1.234375 C 6.378906 -0.835938 6.019531 -0.515625 5.5625 -0.265625 C 5.113281 -0.0234375 4.570312 0.09375 3.9375 0.09375 C 3.28125 0.09375 2.691406 -0.0507812 2.171875 -0.34375 C 1.660156 -0.644531 1.253906 -1.078125 0.953125 -1.640625 C 0.660156 -2.203125 0.515625 -2.882812 0.515625 -3.6875 C 0.515625 -4.488281 0.664062 -5.171875 0.96875 -5.734375 C 1.269531 -6.296875 1.675781 -6.722656 2.1875 -7.015625 C 2.707031 -7.316406 3.289062 -7.46875 3.9375 -7.46875 C 4.507812 -7.46875 5.019531 -7.359375 5.46875 -7.140625 C 5.925781 -6.929688 6.300781 -6.628906 6.59375 -6.234375 C 6.882812 -5.835938 7.066406 -5.351562 7.140625 -4.78125 Z M 7.140625 -4.78125 "/></g></g></g><g fill="#eeba2b" fill-opacity="1"><g transform="translate(148.035573, 244.871528)"><g><path d="M 7.40625 -3.6875 C 7.40625 -2.882812 7.253906 -2.195312 6.953125 -1.625 C 6.648438 -1.0625 6.238281 -0.632812 5.71875 -0.34375 C 5.195312 -0.0507812 4.609375 0.09375 3.953125 0.09375 C 3.304688 0.09375 2.722656 -0.0507812 2.203125 -0.34375 C 1.679688 -0.644531 1.269531 -1.078125 0.96875 -1.640625 C 0.664062 -2.203125 0.515625 -2.882812 0.515625 -3.6875 C 0.515625 -4.488281 0.664062 -5.171875 0.96875 -5.734375 C 1.269531 -6.296875 1.679688 -6.722656 2.203125 -7.015625 C 2.722656 -7.316406 3.304688 -7.46875 3.953125 -7.46875 C 4.609375 -7.46875 5.195312 -7.316406 5.71875 -7.015625 C 6.238281 -6.722656 6.648438 -6.296875 6.953125 -5.734375 C 7.253906 -5.171875 7.40625 -4.488281 7.40625 -3.6875 Z M 5.828125 -3.6875 C 5.828125 -4.46875 5.65625 -5.0625 5.3125 -5.46875 C 4.976562 -5.882812 4.523438 -6.09375 3.953125 -6.09375 C 3.390625 -6.09375 2.9375 -5.882812 2.59375 -5.46875 C 2.257812 -5.0625 2.09375 -4.46875 2.09375 -3.6875 C 2.09375 -2.90625 2.257812 -2.304688 2.59375 -1.890625 C 2.9375 -1.484375 3.390625 -1.28125 3.953125 -1.28125 C 4.523438 -1.28125 4.976562 -1.484375 5.3125 -1.890625 C 5.65625 -2.304688 5.828125 -2.90625 5.828125 -3.6875 Z M 5.828125 -3.6875 "/></g></g></g><g fill="#eeba2b" fill-opacity="1"><g transform="translate(158.840655, 244.871528)"><g/></g></g><g fill="#eeba2b" fill-opacity="1"><g transform="translate(164.076161, 244.871528)"><g><path d="M 1.90625 0 L 0.234375 0 L 2.78125 -7.359375 L 4.796875 -7.359375 L 7.328125 0 L 5.65625 0 L 5.109375 -1.671875 L 2.453125 -1.671875 Z M 2.84375 -2.890625 L 4.71875 -2.890625 L 3.8125 -5.6875 L 3.75 -5.6875 Z M 2.84375 -2.890625 "/></g></g></g><g fill="#eeba2b" fill-opacity="1"><g transform="translate(174.536066, 244.871528)"><g><path d="M 3.25 0 L 0.640625 0 L 0.640625 -7.359375 L 3.265625 -7.359375 C 4.015625 -7.359375 4.65625 -7.210938 5.1875 -6.921875 C 5.71875 -6.628906 6.128906 -6.207031 6.421875 -5.65625 C 6.710938 -5.113281 6.859375 -4.457031 6.859375 -3.6875 C 6.859375 -2.914062 6.710938 -2.253906 6.421875 -1.703125 C 6.128906 -1.160156 5.710938 -0.738281 5.171875 -0.4375 C 4.640625 -0.144531 4 0 3.25 0 Z M 2.203125 -1.328125 L 3.1875 -1.328125 C 3.875 -1.328125 4.394531 -1.515625 4.75 -1.890625 C 5.113281 -2.265625 5.296875 -2.863281 5.296875 -3.6875 C 5.296875 -4.507812 5.113281 -5.101562 4.75 -5.46875 C 4.394531 -5.84375 3.875 -6.03125 3.1875 -6.03125 L 2.203125 -6.03125 Z M 2.203125 -1.328125 "/></g></g></g><g fill="#eeba2b" fill-opacity="1"><g transform="translate(184.787425, 244.871528)"><g><path d="M 1.96875 -7.359375 L 3.75 -1.765625 L 3.8125 -1.765625 L 5.609375 -7.359375 L 7.328125 -7.359375 L 4.796875 0 L 2.78125 0 L 0.234375 -7.359375 Z M 1.96875 -7.359375 "/></g></g></g><g fill="#eeba2b" fill-opacity="1"><g transform="translate(195.24733, 244.871528)"><g><path d="M 7.40625 -3.6875 C 7.40625 -2.882812 7.253906 -2.195312 6.953125 -1.625 C 6.648438 -1.0625 6.238281 -0.632812 5.71875 -0.34375 C 5.195312 -0.0507812 4.609375 0.09375 3.953125 0.09375 C 3.304688 0.09375 2.722656 -0.0507812 2.203125 -0.34375 C 1.679688 -0.644531 1.269531 -1.078125 0.96875 -1.640625 C 0.664062 -2.203125 0.515625 -2.882812 0.515625 -3.6875 C 0.515625 -4.488281 0.664062 -5.171875 0.96875 -5.734375 C 1.269531 -6.296875 1.679688 -6.722656 2.203125 -7.015625 C 2.722656 -7.316406 3.304688 -7.46875 3.953125 -7.46875 C 4.609375 -7.46875 5.195312 -7.316406 5.71875 -7.015625 C 6.238281 -6.722656 6.648438 -6.296875 6.953125 -5.734375 C 7.253906 -5.171875 7.40625 -4.488281 7.40625 -3.6875 Z M 5.828125 -3.6875 C 5.828125 -4.46875 5.65625 -5.0625 5.3125 -5.46875 C 4.976562 -5.882812 4.523438 -6.09375 3.953125 -6.09375 C 3.390625 -6.09375 2.9375 -5.882812 2.59375 -5.46875 C 2.257812 -5.0625 2.09375 -4.46875 2.09375 -3.6875 C 2.09375 -2.90625 2.257812 -2.304688 2.59375 -1.890625 C 2.9375 -1.484375 3.390625 -1.28125 3.953125 -1.28125 C 4.523438 -1.28125 4.976562 -1.484375 5.3125 -1.890625 C 5.65625 -2.304688 5.828125 -2.90625 5.828125 -3.6875 Z M 5.828125 -3.6875 "/></g></g></g><g fill="#eeba2b" fill-opacity="1"><g transform="translate(206.052411, 244.871528)"><g><path d="M 7.140625 -4.78125 L 5.5625 -4.78125 C 5.5 -5.1875 5.320312 -5.503906 5.03125 -5.734375 C 4.75 -5.972656 4.398438 -6.09375 3.984375 -6.09375 C 3.410156 -6.09375 2.953125 -5.878906 2.609375 -5.453125 C 2.265625 -5.035156 2.09375 -4.445312 2.09375 -3.6875 C 2.09375 -2.894531 2.265625 -2.296875 2.609375 -1.890625 C 2.953125 -1.484375 3.40625 -1.28125 3.96875 -1.28125 C 4.382812 -1.28125 4.734375 -1.382812 5.015625 -1.59375 C 5.304688 -1.8125 5.488281 -2.117188 5.5625 -2.515625 L 7.140625 -2.515625 C 7.078125 -2.054688 6.910156 -1.628906 6.640625 -1.234375 C 6.378906 -0.835938 6.019531 -0.515625 5.5625 -0.265625 C 5.113281 -0.0234375 4.570312 0.09375 3.9375 0.09375 C 3.28125 0.09375 2.691406 -0.0507812 2.171875 -0.34375 C 1.660156 -0.644531 1.253906 -1.078125 0.953125 -1.640625 C 0.660156 -2.203125 0.515625 -2.882812 0.515625 -3.6875 C 0.515625 -4.488281 0.664062 -5.171875 0.96875 -5.734375 C 1.269531 -6.296875 1.675781 -6.722656 2.1875 -7.015625 C 2.707031 -7.316406 3.289062 -7.46875 3.9375 -7.46875 C 4.507812 -7.46875 5.019531 -7.359375 5.46875 -7.140625 C 5.925781 -6.929688 6.300781 -6.628906 6.59375 -6.234375 C 6.882812 -5.835938 7.066406 -5.351562 7.140625 -4.78125 Z M 7.140625 -4.78125 "/></g></g></g><g fill="#eeba2b" fill-opacity="1"><g transform="translate(216.555461, 244.871528)"><g><path d="M 1.90625 0 L 0.234375 0 L 2.78125 -7.359375 L 4.796875 -7.359375 L 7.328125 0 L 5.65625 0 L 5.109375 -1.671875 L 2.453125 -1.671875 Z M 2.84375 -2.890625 L 4.71875 -2.890625 L 3.8125 -5.6875 L 3.75 -5.6875 Z M 2.84375 -2.890625 "/></g></g></g><g fill="#eeba2b" fill-opacity="1"><g transform="translate(227.015366, 244.871528)"><g><path d="M 0.359375 -6.078125 L 0.359375 -7.359375 L 6.40625 -7.359375 L 6.40625 -6.078125 L 4.15625 -6.078125 L 4.15625 0 L 2.609375 0 L 2.609375 -6.078125 Z M 0.359375 -6.078125 "/></g></g></g><g fill="#eeba2b" fill-opacity="1"><g transform="translate(236.669864, 244.871528)"><g><path d="M 0.640625 0 L 0.640625 -7.359375 L 5.609375 -7.359375 L 5.609375 -6.078125 L 2.203125 -6.078125 L 2.203125 -4.328125 L 5.34375 -4.328125 L 5.34375 -3.046875 L 2.203125 -3.046875 L 2.203125 -1.28125 L 5.609375 -1.28125 L 5.609375 0 Z M 0.640625 0 "/></g></g></g><g fill="#eeba2b" fill-opacity="1"><g transform="translate(245.759848, 244.871528)"><g><path d="M 4.640625 -5.25 C 4.609375 -5.539062 4.484375 -5.765625 4.265625 -5.921875 C 4.046875 -6.078125 3.75 -6.15625 3.375 -6.15625 C 2.988281 -6.15625 2.691406 -6.078125 2.484375 -5.921875 C 2.285156 -5.773438 2.1875 -5.582031 2.1875 -5.34375 C 2.1875 -5.070312 2.300781 -4.867188 2.53125 -4.734375 C 2.757812 -4.597656 3.035156 -4.492188 3.359375 -4.421875 L 4.015625 -4.265625 C 4.441406 -4.171875 4.820312 -4.03125 5.15625 -3.84375 C 5.488281 -3.664062 5.75 -3.429688 5.9375 -3.140625 C 6.132812 -2.859375 6.234375 -2.515625 6.234375 -2.109375 C 6.222656 -1.429688 5.96875 -0.890625 5.46875 -0.484375 C 4.96875 -0.0859375 4.269531 0.109375 3.375 0.109375 C 2.476562 0.109375 1.765625 -0.09375 1.234375 -0.5 C 0.703125 -0.914062 0.425781 -1.519531 0.40625 -2.3125 L 1.90625 -2.3125 C 1.9375 -1.945312 2.082031 -1.671875 2.34375 -1.484375 C 2.613281 -1.296875 2.945312 -1.203125 3.34375 -1.203125 C 3.738281 -1.203125 4.054688 -1.285156 4.296875 -1.453125 C 4.535156 -1.617188 4.65625 -1.835938 4.65625 -2.109375 C 4.65625 -2.359375 4.546875 -2.550781 4.328125 -2.6875 C 4.109375 -2.820312 3.800781 -2.9375 3.40625 -3.03125 L 2.609375 -3.234375 C 1.984375 -3.378906 1.488281 -3.613281 1.125 -3.9375 C 0.769531 -4.257812 0.59375 -4.691406 0.59375 -5.234375 C 0.59375 -5.679688 0.710938 -6.070312 0.953125 -6.40625 C 1.191406 -6.738281 1.519531 -7 1.9375 -7.1875 C 2.363281 -7.375 2.847656 -7.46875 3.390625 -7.46875 C 3.929688 -7.46875 4.40625 -7.375 4.8125 -7.1875 C 5.226562 -7 5.546875 -6.738281 5.765625 -6.40625 C 5.992188 -6.070312 6.113281 -5.6875 6.125 -5.25 Z M 4.640625 -5.25 "/></g></g></g><path stroke-linecap="butt" transform="matrix(0.75, 0, 0, 0.75, 73.373121, 238.121528)" fill="none" stroke-linejoin="miter" d="M 0.00250496 2.499421 L 58.018134 2.499421 " stroke="#ffffff" stroke-width="5" stroke-opacity="1" stroke-miterlimit="4"/><path stroke-linecap="butt" transform="matrix(0.75, 0, 0, 0.75, 258.112723, 237.371528)" fill="none" stroke-linejoin="miter" d="M 0.000744666 2.499421 L 58.016373 2.499421 " stroke="#ffffff" stroke-width="5" stroke-opacity="1" stroke-miterlimit="4"/></svg>