<?xml version="1.0" standalone="no"?>
<!DOCTYPE svg PUBLIC "-//W3C//DTD SVG 20010904//EN"
 "http://www.w3.org/TR/2001/REC-SVG-20010904/DTD/svg10.dtd">
<svg version="1.0" xmlns="http://www.w3.org/2000/svg"
 width="232.000000pt" height="419.000000pt" viewBox="0 0 232.000000 419.000000"
 preserveAspectRatio="xMidYMid meet">

<g transform="translate(0.000000,419.000000) scale(0.100000,-0.100000)"
fill="#000000" stroke="none">
<path d="M1160 4090 c-296 -28 -578 -192 -742 -432 -87 -129 -147 -284 -167
-431 -12 -85 -16 -2339 -5 -2350 4 -3 38 10 76 29 88 45 185 139 223 219 53
114 54 133 55 1115 0 860 1 909 19 985 11 44 35 112 55 151 58 119 195 249
327 308 71 32 195 57 256 51 26 -3 73 -8 103 -11 128 -14 310 -122 395 -237
61 -80 91 -140 118 -235 21 -77 21 -81 23 -1147 3 -1173 3 -1160 -57 -1331
-31 -90 -93 -214 -130 -263 -11 -14 -37 -49 -59 -78 -22 -29 -78 -86 -126
-127 -72 -63 -91 -75 -113 -71 -20 4 -22 3 -7 -3 17 -8 12 -14 -40 -48 -32
-22 -72 -46 -88 -54 -34 -17 -44 -38 -25 -52 19 -13 259 -1 334 16 153 36 316
133 414 246 24 27 48 47 54 43 6 -3 7 -1 3 5 -4 7 6 31 22 54 38 55 106 190
125 248 8 25 23 81 33 125 18 76 19 144 19 1240 0 1260 3 1179 -52 1360 -74
238 -299 487 -539 596 -139 63 -338 94 -504 79z"/>
<path d="M1100 3513 c-102 -35 -196 -117 -246 -214 -63 -126 -58 -41 -64
-1119 l-5 -985 -24 -65 c-66 -183 -173 -313 -321 -389 -70 -36 -288 -101 -339
-101 -21 0 -21 -1 -19 -177 l3 -177 50 4 c28 3 73 5 102 5 28 0 47 3 42 6 -6
3 16 11 48 18 32 7 100 29 151 48 51 18 98 31 105 27 6 -4 9 -4 5 1 -4 4 40
39 98 78 177 116 306 263 389 441 74 160 69 78 72 1196 2 553 2 1098 1 1211
l-3 207 -45 -15z"/>
<path d="M1346 3512 c-4 -3 -6 -542 -6 -1198 0 -1287 2 -1239 -53 -1399 -67
-195 -195 -371 -373 -515 -85 -68 -206 -142 -238 -146 -11 -1 -23 -3 -25 -3
-2 -1 2 -7 8 -14 22 -28 290 -1 431 43 130 41 227 97 322 188 133 127 199 236
261 429 l32 98 3 1069 c3 1181 6 1113 -61 1239 -50 96 -163 185 -262 207 -19
4 -36 5 -39 2z"/>
<path d="M2272 985 c0 -16 2 -22 5 -12 2 9 2 23 0 30 -3 6 -5 -1 -5 -18z"/>
<path d="M1707 547 l-17 -32 20 24 c17 20 26 41 18 41 -2 0 -11 -15 -21 -33z"/>
<path d="M1999 320 c-26 -27 -45 -51 -42 -54 4 -4 21 14 82 87 29 35 5 15 -40
-33z"/>
<path d="M1210 310 c-8 -5 -10 -10 -5 -10 6 0 17 5 25 10 8 5 11 10 5 10 -5 0
-17 -5 -25 -10z"/>
<path d="M715 300 c-3 -5 -2 -10 4 -10 5 0 13 5 16 10 3 6 2 10 -4 10 -5 0
-13 -4 -16 -10z"/>
<path d="M1922 248 c-19 -19 -14 -29 8 -16 20 13 27 28 12 28 -4 0 -13 -5 -20
-12z"/>
<path d="M1888 203 c6 -2 18 -2 25 0 6 3 1 5 -13 5 -14 0 -19 -2 -12 -5z"/>
<path d="M1630 80 c0 -5 5 -10 10 -10 6 0 10 5 10 10 0 6 -4 10 -10 10 -5 0
-10 -4 -10 -10z"/>
<path d="M1539 66 c-14 -7 -41 -12 -60 -10 l-34 3 33 -8 c36 -9 68 -5 91 13
11 8 13 8 8 0 -4 -7 -1 -14 7 -17 10 -4 12 0 9 14 -6 22 -19 24 -54 5z"/>
<path d="M1262 51 c-11 -7 -10 -9 3 -14 9 -4 14 -3 10 2 -3 5 1 12 7 14 7 3 9
6 3 6 -5 0 -16 -3 -23 -8z"/>
<path d="M1410 50 c13 -8 12 -10 -4 -10 -11 0 -17 -3 -13 -6 3 -3 15 -3 26 1
24 7 19 25 -7 25 -15 0 -15 -2 -2 -10z"/>
<path d="M1300 40 c-8 -5 -10 -10 -5 -10 6 0 1 -7 -9 -15 -18 -14 -14 -15 48
-15 60 0 67 2 56 15 -7 8 -23 15 -36 15 -13 0 -24 5 -24 10 0 13 -11 13 -30 0z"/>
<path d="M1550 30 c8 -5 20 -10 25 -10 6 0 3 5 -5 10 -8 5 -19 10 -25 10 -5 0
-3 -5 5 -10z"/>
<path d="M1234 21 c4 -5 0 -12 -6 -14 -8 -4 -7 -6 3 -6 9 -1 19 6 23 14 3 9 0
15 -10 15 -8 0 -13 -4 -10 -9z"/>
<path d="M1465 20 c3 -5 10 -10 16 -10 5 0 9 5 9 10 0 6 -7 10 -16 10 -8 0
-12 -4 -9 -10z"/>
<path d="M1420 10 c0 -5 10 -10 23 -10 18 0 19 2 7 10 -19 13 -30 13 -30 0z"/>
</g>
</svg>
